<?xml version="1.0" encoding="UTF-8"?>
<!DOCTYPE svg PUBLIC "-//W3C//DTD SVG 1.1//EN" "http://www.w3.org/Graphics/SVG/1.1/DTD/svg11.dtd">
<svg xmlns="http://www.w3.org/2000/svg" version="1.1" width="32px" height="32px" style="shape-rendering:geometricPrecision; text-rendering:geometricPrecision; image-rendering:optimizeQuality; fill-rule:evenodd; clip-rule:evenodd" xmlns:xlink="http://www.w3.org/1999/xlink">
<g><path style="opacity:0.696" fill="#4355b6" d="M 19.5,2.5 C 20.209,1.59603 21.209,1.26269 22.5,1.5C 23.5,2.83333 24.5,4.16667 25.5,5.5C 25.1583,6.33825 24.4916,6.67158 23.5,6.5C 22.5,4.83333 21.1667,3.5 19.5,2.5 Z"/></g>
<g><path style="opacity:1" fill="#929dd5" d="M 22.5,1.5 C 23.5,1.5 24.5,1.5 25.5,1.5C 26.1667,2.83333 27.1667,3.83333 28.5,4.5C 27.791,5.40397 26.791,5.73731 25.5,5.5C 24.5,4.16667 23.5,2.83333 22.5,1.5 Z"/></g>
<g><path style="opacity:0.482" fill="#4351b7" d="M 25.5,1.5 C 26.5,1.5 27.5,1.5 28.5,1.5C 28.5,2.5 28.5,3.5 28.5,4.5C 27.1667,3.83333 26.1667,2.83333 25.5,1.5 Z"/></g>
<g><path style="opacity:1" fill="#909ad3" d="M 14.5,2.5 C 15.925,3.92203 16.925,5.5887 17.5,7.5C 16.5,7.5 15.5,7.5 14.5,7.5C 14.2671,5.93819 13.6005,4.60486 12.5,3.5C 13.1667,3.16667 13.8333,2.83333 14.5,2.5 Z"/></g>
<g><path style="opacity:1" fill="#929cd4" d="M 17.5,2.5 C 18.1667,2.5 18.8333,2.5 19.5,2.5C 21.1667,3.5 22.5,4.83333 23.5,6.5C 22.5,6.5 21.5,6.5 20.5,6.5C 19.5,5.16667 18.5,3.83333 17.5,2.5 Z"/></g>
<g><path style="opacity:1" fill="#8994d1" d="M 9.5,3.5 C 10.925,4.92203 11.925,6.5887 12.5,8.5C 11.5,8.5 10.5,8.5 9.5,8.5C 8.83333,7.16667 8.16667,5.83333 7.5,4.5C 7.84171,3.66175 8.50838,3.32842 9.5,3.5 Z"/></g>
<g><path style="opacity:0.995" fill="#4655b8" d="M 9.5,3.5 C 10.5,3.5 11.5,3.5 12.5,3.5C 13.6005,4.60486 14.2671,5.93819 14.5,7.5C 14.1583,8.33825 13.4916,8.67158 12.5,8.5C 11.925,6.5887 10.925,4.92203 9.5,3.5 Z"/></g>
<g><path style="opacity:1" fill="#475ab5" d="M 14.5,2.5 C 15.5,2.5 16.5,2.5 17.5,2.5C 18.5,3.83333 19.5,5.16667 20.5,6.5C 19.791,7.40397 18.791,7.73731 17.5,7.5C 16.925,5.5887 15.925,3.92203 14.5,2.5 Z"/></g>
<g><path style="opacity:0.926" fill="#4052b5" d="M 7.5,4.5 C 8.16667,5.83333 8.83333,7.16667 9.5,8.5C 8.16667,8.83333 8.16667,9.16667 9.5,9.5C 9.48944,11.0174 8.82277,12.1841 7.5,13C 10.3449,13.6693 12.0116,12.5027 12.5,9.5C 13.5,9.5 14.5,9.5 15.5,9.5C 14.8592,10.4822 14.1925,11.4822 13.5,12.5C 15.7808,13.2617 17.1141,12.2617 17.5,9.5C 18.5,9.5 19.5,9.5 20.5,9.5C 19.9717,10.7206 19.305,11.8873 18.5,13C 21.0107,13.239 22.6773,12.0723 23.5,9.5C 24.1667,9.5 24.8333,9.5 25.5,9.5C 25.4894,11.0174 24.8228,12.1841 23.5,13C 26.3449,13.6693 28.0116,12.5027 28.5,9.5C 29.6507,14.6503 29.8174,19.9836 29,25.5C 28.5,26 28,26.5 27.5,27C 19.5,27.6667 11.5,27.6667 3.5,27C 3,26.5 2.5,26 2,25.5C 1.33333,18.8333 1.33333,12.1667 2,5.5C 3.69946,4.59391 5.5328,4.26057 7.5,4.5 Z"/></g>
<g><path style="opacity:1" fill="#959fd6" d="M 4.5,9.5 C 5.55198,9.35055 6.55198,9.51722 7.5,10C 3.51101,14.7281 2.51101,14.5615 4.5,9.5 Z"/></g>
<g><path style="opacity:1" fill="#969fd6" d="M 25.5,9.5 C 26.5,9.5 27.5,9.5 28.5,9.5C 28.0116,12.5027 26.3449,13.6693 23.5,13C 24.8228,12.1841 25.4894,11.0174 25.5,9.5 Z"/></g>
<g><path style="opacity:1" fill="#969fd6" d="M 9.5,9.5 C 10.5,9.5 11.5,9.5 12.5,9.5C 12.0116,12.5027 10.3449,13.6693 7.5,13C 8.82277,12.1841 9.48944,11.0174 9.5,9.5 Z"/></g>
<g><path style="opacity:1" fill="#959fd6" d="M 20.5,9.5 C 21.5,9.5 22.5,9.5 23.5,9.5C 22.6773,12.0723 21.0107,13.239 18.5,13C 19.305,11.8873 19.9717,10.7206 20.5,9.5 Z"/></g>
<g><path style="opacity:1" fill="#98a1d7" d="M 15.5,9.5 C 16.1667,9.5 16.8333,9.5 17.5,9.5C 17.1141,12.2617 15.7808,13.2617 13.5,12.5C 14.1925,11.4822 14.8592,10.4822 15.5,9.5 Z"/></g>
</svg>
